# xmcd CD database file
#
# Track frame offsets:
#	182
#	10807
#	33572
#	59835
#	73070
#	82907
#	101152
#	119927
#	129867
#	136357
#	167177
#	179335
#	195595
#
# Disc length: 2741 seconds
#
# Revision: 0
# Processed by: cddbd v1.5.2PL0 Copyright (c) Steve Scherf et al.
# Submitted via: CDex 1.51
#
DISCID=bf0ab30d
DTITLE=Deins Colin - Clarinette Basse Seul
DYEAR=1990
DGENRE=Jazz
TTITLE0=ouverture
TTITLE1=niger
TTITLE2=ça voir
TTITLE3=gaspard
TTITLE4=invitation au secret
TTITLE5=la chanson de l'an mil
TTITLE6=innocental moon
TTITLE7=la vibration s'engouffre
TTITLE8=première tragédie
TTITLE9=hasard provoqué
TTITLE10=for ra
TTITLE11=silence lent
TTITLE12=aphrobite
EXTD=YEAR: 1990
EXTT0=
EXTT1=
EXTT2=
EXTT3=
EXTT4=
EXTT5=
EXTT6=
EXTT7=
EXTT8=
EXTT9=
EXTT10=
EXTT11=
EXTT12=
PLAYORDER=
